<svg xmlns="http://www.w3.org/2000/svg" width="256" height="256" viewBox="0 0 256 256"><path d="M59 167.2a31.9 31.9 0 0 0-7.7.8v.2c0 .3.2.6.7.9l2 1.1 2.7 1 2.8.8 2.4.6 1.5.2h2.1a11.7 11.7 0 0 0 2.6-.4l2.4-.9a3.9 3.9 0 0 0 1.7-1.4 24.9 24.9 0 0 0-6.5-2.2 29.9 29.9 0 0 0-6.7-.7z"/><path d="M128.2.5A127.5 127.5 0 1 0 255.7 128 127.5 127.5 0 0 0 128.2.5zm83.1 70.3v.4a9.5 9.5 0 0 1-.1 1.4l-.3 2.1a15.5 15.5 0 0 1-.4 2.1 9 9 0 0 1-.2 1.3 7.6 7.6 0 0 0-.9 1.8l-.6 2-.6 2a11.9 11.9 0 0 1-.8 2c-.5 1.1-1.1 2.1-1.6 3a18.2 18.2 0 0 0-1.6 3.1l-20.1 27.8a.8.8 0 0 1-.2.6l-.3.2c0 .1-.2.2-.3.3l-.4.5-1.6 2.3c-.7.9-1.4 1.8-2.1 2.9l-2.2 3.2c-.7 1.1-1.4 2.2-2 3.3s-1 2.1-1.4 3a8 8 0 0 0-.5 2.3c0 .3-.2.5-.2.7s.2.5.2.7a.3.3 0 0 0-.3.3c0 .3.1.4.3.4v10.2a1.9 1.9 0 0 1-.3 1l-.3 1.2-.7 1.2c-.1.4-.4.8-.4 1.1v1.8c0 .1.1.2 0 .4s-.2.5-.4.8l-.7.8c-.2.3-.6.4-.6.5v.4s.7.2.8.4.9.3.9.4v2.8a22.5 22.5 0 0 1-.6 3.6c-.2 1.1-.6 2.3-.8 3.5s-.5 2.3-.7 3.5-.3 2.3-.3 3.5.1 4.2.3 6.3a42.3 42.3 0 0 0 1.1 6.2 31 31 0 0 0 2.1 5.8 25 25 0 0 0 3.5 5.2 5.7 5.7 0 0 1-1.3.8l-1.7.7-1.7.5h-1.9l-1.1-.3-1.2-.2-.9-.3h-.8l-.7-.3a1 1 0 0 1-.6-.5c-.2-.1-.3-.4-.4-.7a18.6 18.6 0 0 0 .1-4.1c0-1.4-.1-2.8-.2-4.2l-.6-4.3c-.2-1.4-.3-2.8-.5-4.1s-.1-.3-.2-.6l-.2-.6c0-1.2.1-2.4.1-3.7s0-2.7-.1-4a25.7 25.7 0 0 0-.6-4 12.3 12.3 0 0 0-1.5-3.5 3.5 3.5 0 0 0-1.4 1.9 17.3 17.3 0 0 0-.8 2.7c-.2.9-.2 1.9-.4 2.9s-1 1.7-1 2.3v1.5a17.7 17.7 0 0 1 0 2.3v3.7c0 2.8-.2 5.6-.1 8.3a75.4 75.4 0 0 0 .6 8.2l.4.4.8.6a2.7 2.7 0 0 1 .8.7.7.7 0 0 1 .4.6c0 .2-.3.5-.8.8l-1.9.9-2 .8-1.3.4h-.2l-4.8-2.6c-.2-.1-.2-.4-.2-.5v-.6a29.9 29.9 0 0 1 0-3 14.2 14.2 0 0 0 .2-3 23.3 23.3 0 0 0-.4-3.8c-.1-1.2-.3-2.5-.5-3.7s-.4-2.5-.6-3.8a23.8 23.8 0 0 1-.3-3.9c0-1.2 0-2.3.1-3.3a23.6 23.6 0 0 1 .4-2.8 27.4 27.4 0 0 1 .5-2.8c.2-1 .4-2.1.7-3.2a2.8 2.8 0 0 0-.1-.8c0-.3-.1-.5-.1-.7l-1.9.2-1.8.6-2 .6-1.9.5-1.3.2H138c-.4.1-.7-.1-1-.1l-1.1-.2h-7.1a44.3 44.3 0 0 0-5.2-.2h-2.5a5 5 0 0 0-2.3.9v5.2c-.1 1.7-.1 3.4-.2 5.1l-.3 5.1c0 1.8-.1 3.5-.1 5.3v5.1c0 .5.7 1.1 1.1 1.6l1.4 1.8a6.6 6.6 0 0 1 1.2 1.7 3.1 3.1 0 0 1 .5 1.8v.4a9 9 0 0 1-4 .4c0 .5 0 .7-.3.8h-2.7l-2.3-.2a5.1 5.1 0 0 1-1.8-.9 2.3 2.3 0 0 1-.8-1.9 5 5 0 0 1 .2-1.2l.3-1.3.3-1.4a6.1 6.1 0 0 0 .1-1.4 23.6 23.6 0 0 0-.2-3.8c-.2-1.2-.4-2.4-.7-3.6s-.5-2.7-.8-3.8a20.6 20.6 0 0 1-.7-4h-.5c-.2 0-.4.7-.5.9l-.4.7-.3.5a18.8 18.8 0 0 1-1.6 2.3 17.6 17.6 0 0 0-1.4 2.3 12.8 12.8 0 0 0-1.1 2.4 8.4 8.4 0 0 0-.4 2.7 4.1 4.1 0 0 0 .3 1.6c.2.6.5 1.1.7 1.6l.7 1.1c.3.3.4.5.4.6a1 1 0 0 1-.4.7l-1 .5-1.4.3h-2.6l-1.7-.2a1.8 1.8 0 0 1-1.1-.4 1.9 1.9 0 0 1-.7-.8 5.8 5.8 0 0 1-.5-1.7l-.6-1.6a7.8 7.8 0 0 1-.2-1.6 2.8 2.8 0 0 1 .4-1.5l.9-1.6 1.1-1.6a10.9 10.9 0 0 0 .8-1.5c.8-1.9 1.7-3.9 2.5-5.9l2.4-5.9.5-.7a3.5 3.5 0 0 0 .5-.8l.5-.7a2.2 2.2 0 0 0 .1-.8c0-.4-.1-.6-.3-.7h-1.3l-9 2.5a3.2 3.2 0 0 1-1.3.5l-1.8.4a7.6 7.6 0 0 0-1.6.6 1.1 1.1 0 0 0-.6 1.1 1.5 1.5 0 0 0 .2.9l.7.6.8.6a1.3 1.3 0 0 1 .7.6l-.4.4a12.5 12.5 0 0 0-1.2-.8l-1.4-.9-1.6-.6-1.5-.2a17.3 17.3 0 0 0-3.8.5l-4 1.1c-1.3.5-2.7.8-4.1 1.2a20.1 20.1 0 0 1-4.2.5 18.5 18.5 0 0 1-3.5-.4l-4.9-1.1-5.4-1.8a39.3 39.3 0 0 1-5-2.2 19.7 19.7 0 0 1-3.7-2.7 4.3 4.3 0 0 1-1.5-3 4.5 4.5 0 0 1 1.2-3.3 5.3 5.3 0 0 1 2.7-1.6c1.1-.4 2.3-.1 3.5-.2s2.4.3 3.4.3h4a2.7 2.7 0 0 1 1.3-.2h2.3l2.6.4 1.9.2a6.6 6.6 0 0 1 2 .6l1.8.8 1.8.8a6.4 6.4 0 0 0 2 .3 7.8 7.8 0 0 0 4-1.1 30.9 30.9 0 0 0 4.2-2.5l3.9-3.1 3.2-2.8 1.9-1.2 1.9-1.1a10.9 10.9 0 0 0 1.7-.8 8.6 8.6 0 0 0 1.5-1.7 33 33 0 0 0 2.6-4.5q1.2-2.2 2.7-4.5l1.3-1.3 1.6-1 1.6-.9a7 7 0 0 0 1.7-.9l3.6-2.6 3.4-2.9 3.4-3 3.5-2.9a15.7 15.7 0 0 1 3.8-2.2l3.9-1.9 2.5-1.3 2.5-1.3 2.5-1.1a13.8 13.8 0 0 1 2.7-.8l22.5-3.3a8.9 8.9 0 0 0 3.5-1.1 17.9 17.9 0 0 0 3.4-2.2 42 42 0 0 0 3.2-2.9c1-1.1 2-2.1 2.9-3.2l2.7-3.3 2.3-2.8 7.7-9 .4-.3.5-.5.5-.5.3-.3 2-3.3.3-.2.4-.2.4-.2c.1-.1.1-.2.2-.2l.4-.4c.2-.2.3-.4.4-.4l1.2-1.7 1.4-2 1.3-2 1-1.7a16.7 16.7 0 0 0 .8-2 14.2 14.2 0 0 0 .7-2.2c.2-.7.5-1.4.8-2.2s1-1.4 1-2.2v-6.1a5.3 5.3 0 0 0-1.1-3.1 12.8 12.8 0 0 0-2.6-2.6 12.4 12.4 0 0 0-3.4-1.8 8.4 8.4 0 0 0-3.2-.7 23.2 23.2 0 0 0-5.9.7 12.4 12.4 0 0 0-5.1 2.6l-1.4 1.5-1.7 1.8a16.3 16.3 0 0 1-1.7 2 17 17 0 0 1-1.9 1.9 10.2 10.2 0 0 1-1.8 1.3 3.1 3.1 0 0 1-1.8.5 1.3 1.3 0 0 1-1.1-.5 1.3 1.3 0 0 1-.6-1.1v-.4a1.7 1.7 0 0 1 .2-.5c0-.2.1-.5.1-.8s.1-.5.2-.8v-.4a4.4 4.4 0 0 0-.2-1.7l-.6-1.4-.6-1.2a2.4 2.4 0 0 1-.3-1.2 1.2 1.2 0 0 0 .9-.3c.2-.1.3-.4.4-.6l.5-.8a1.8 1.8 0 0 1 .8-.6h2.8a1.1 1.1 0 0 0 1-.4 2.2 2.2 0 0 1 .7-.6.1.1 0 0 1 .2 0h.2c0 .1.1.2.2.4l.2.4c0-.2.2-.3.4-.4l.6-.4 1.1-.6 1.4-.8 1.4-.8 1-.7.6-.4 2.1-1.2 1.8-.7 1.9-.2h6.5l1.5.5 1.5.3 1.6.3 1.5.5a14.9 14.9 0 0 1 4.6 3.1 14.6 14.6 0 0 1 3.2 4.2 21.1 21.1 0 0 1 1.7 5 20.5 20.5 0 0 1 .5 5.5v2.3z"/></svg>