<svg xmlns="http://www.w3.org/2000/svg" width="256" height="256" viewBox="0 0 256 256"><path d="M132.7 151.2c-.3 0-.4.2-.4.6h-.1a.5.5 0 0 0-.5.5c0 .4.2.6.5.6s.4-.2.4-.6h.1c.4 0 .5-.2.5-.5s-.1-.6-.5-.6zm1.5-.8a2.4 2.4 0 0 0-.9.8h.3a2 2 0 0 0 1.1-.3 2.4 2.4 0 0 0 .9-.8h-.3a2 2 0 0 0-1.1.3zm3-2.6c-.2 0-.4.2-.4.6h-.1c-.3 0-.4.2-.4.5h-.2c-.3 0-.4.2-.4.6s.1.6.4.6.5-.2.5-.6h.1c.3 0 .5-.2.5-.6.4 0 .6-.1.6-.5a.5.5 0 0 0-.6-.6zm23.3-5.9a8.7 8.7 0 0 1-1.2 1.4 2 2 0 0 0 .8 1.1l1.1.2a2.4 2.4 0 0 0 1.4-.5 6.3 6.3 0 0 0 1.1-1.2l.8-1.5c.2-.5.3-1.2.4-1.2h-3.4c-.2 0-.5 1.1-1 1.7z"/><path d="M128.2.5A127.5 127.5 0 1 0 255.7 128 127.5 127.5 0 0 0 128.2.5zm95.6 75.6a4.2 4.2 0 0 1-1.6.4h-3.7l-5.2 1.2a18.6 18.6 0 0 0-3.7 1.6 10.7 10.7 0 0 0-2.5 2.2 13.9 13.9 0 0 0-1.7 3 17.6 17.6 0 0 0-1.5 3.9c-.5 1.4-1.1 3.1-1.7 5l-1.2 3.7c-.4 1.1-.8 2.1-1.3 3.2s-.9 2-1.4 3.1a36.9 36.9 0 0 1-1.8 3.3 39.4 39.4 0 0 1-2.6 4l-3 3.7-3.1 3.6c-1.1 1.2-2.1 2.5-3.1 3.8a8.7 8.7 0 0 0-1.4 2.7 20 20 0 0 1-1 2.6 9.8 9.8 0 0 1-1.3 2.2 5.7 5.7 0 0 1-2.5 1.6l-1.4.6-2 .6-2.1.7-1.3.3a3.3 3.3 0 0 1 .2 2.1 2 2 0 0 1-.9.9l-1.2.6a1.3 1.3 0 0 0-.9 1l-2.3 6.7a2.7 2.7 0 0 1-1 1.5 6.1 6.1 0 0 1-1.8.9 13.6 13.6 0 0 1-2 .2 10.9 10.9 0 0 1-1.9-.1h-2c-.3-.1-.4-.3-.4-.8s0-.3.1-.4l.3-.3.2-.3c.1-.1.1-.2.1-.4v-.2a28.1 28.1 0 0 0-3.5 1.7l-3.4 2-3.3 2.2a23.3 23.3 0 0 1-3.4 2l-.8.5-1.2.5-1 .8a1.5 1.5 0 0 0-.4 1.1v.5l1.8 1.7 2 1.7a15.6 15.6 0 0 0 2 1.6l2.1 1.3 1.8.6 2 .6 1.9.6a14 14 0 0 1 1.7.9l1.3 1.4 1.1 1.6 1.1 1.4a6.4 6.4 0 0 0 1.5 1.3l1.7.6 2.1.6a5.4 5.4 0 0 1 1.8 1.1 2.1 2.1 0 0 1 .7 1.7v.5l-5.6 1.1-1.1.4a2.1 2.1 0 0 1-1.2.3h-.5l-1.2-.6-1.7-1-1.7-1-1.1-.8-.2-.2-.3-.5-.3-.5-.3-.5-2.2-4.5-1.2-.5-1.8-.7-2.1-.9-2.2-1-1.8-.8-1.1-.6-2.8-1.6a17.8 17.8 0 0 1-2.6-2.2 10.5 10.5 0 0 1-2-2.7 8.2 8.2 0 0 1-1.1-3.1l-.5.2-.6.4-.9.6-1.7 1.2-2.1 1.4-2.2 1.4-1.7 1.1-1 .5-6 3.5a23.4 23.4 0 0 0-4.5 3.5 17.7 17.7 0 0 0-3.7 4.4c-.9 1.7-.7 3.9-2.4 6.7v1.5a10.5 10.5 0 0 0 1.2 4.5 9.2 9.2 0 0 0 2.1 2.6 8.7 8.7 0 0 0 2.7 1.4 14.5 14.5 0 0 1 2.5 1 5.3 5.3 0 0 1 2 .9 6.3 6.3 0 0 1 .8 2.1h-13.4c-.1 0-.1-.3-.2-.4a.4.4 0 0 0-.4-.2l-.5-.2-.6-.3a3.4 3.4 0 0 1-1.3-1.6 6.5 6.5 0 0 1-.4-2.1 9.7 9.7 0 0 1 .2-2.4c0-.8.2-1.4.2-2v-1.5a9.2 9.2 0 0 1 .3-1.8c.2-.8.3-1.7.6-2.7s.5-2 .8-3.1.5-2.2.8-3.2l.6-2.7c.2-.8.4-1.3.5-1.7s.4-1.5.6-2.1.6-1.2 1-1.8a16.1 16.1 0 0 0 4.5-2.6q1.8-1.7 3.3-3.3c1-1.2 2-2.3 2.9-3.5a20.2 20.2 0 0 1 3.4-3.1l1.5-.7 2.1-.8 2.3-.9a10.5 10.5 0 0 0 2.1-1.2 5.3 5.3 0 0 0 1.6-1.3 2.5 2.5 0 0 0 .6-1.6v-1.3a1.7 1.7 0 0 0-.6-1.2l-.8-.3-1.2-.5-1.1-.6-.8-.3-2.1-1.2-2.6-1.9a26.3 26.3 0 0 0-2.6-1.6 3.4 3.4 0 0 0-1.7-.6h-7.9c-6 0-11.9-.1-17.8.1s-11.7.2-17.7.2q-6.6 0-12.9-.3a102.3 102.3 0 0 1-12.4-1.4 101.4 101.4 0 0 1-12.1-2.9 75.1 75.1 0 0 1-11.8-5.1l-1.4-.7-1.6-1a5.3 5.3 0 0 1-1.3-1.3 2.5 2.5 0 0 1-.6-1.6 6.9 6.9 0 0 1 2.2.4l2.4.9 2.2 1 1.5.6a42.4 42.4 0 0 0 4.7 1.7l5 1.4a33.9 33.9 0 0 0 5.2 1 27.4 27.4 0 0 0 4.8.4h26.7l2.5-.4 3.4-.5 3.6-.6 3.5-.6 2.7-.6 6.9-1.3c2.4-.5 4.9-1 7.4-1.7s4.9-1.3 7.3-2.1a48.4 48.4 0 0 0 6.6-2.8l3.8-1.8 3.8-1.6 4-1.3a25.9 25.9 0 0 1 4.2-.9h1l1.8-.2h1.8l1-.2 1.9-.3 3.4-.8 4.1-.9 4-.9c1.3-.3 2.4-.9 3.4-1.1s1.5-.7 1.9-.7h6.5c2.7 0 5.4.5 8 .7s5.2.5 7.9.5a10.1 10.1 0 0 0 5-1.3 16.1 16.1 0 0 0 4.5-3.5 32.3 32.3 0 0 0 3.9-4.9q1.8-2.8 3.3-5.7c1-1.9 1.8-3.8 2.6-5.6s1.3-3.4 1.7-4.8.8-2.4 1.2-3.5a29.9 29.9 0 0 1 1-3.2 12.3 12.3 0 0 1 1.2-2.6 6.8 6.8 0 0 1 1.8-2 8.2 8.2 0 0 1 2.6-1.6 12.7 12.7 0 0 1 3.8-.8h3.1c.7 1.7 1.7.9 3 1.3a37.3 37.3 0 0 1 3.5 1.6 10.9 10.9 0 0 1 3 1.8 2.8 2.8 0 0 1 1.3 2.2 2 2 0 0 1-.5 1.4 2.8 2.8 0 0 1-1.1.3z"/></svg>