<svg xmlns="http://www.w3.org/2000/svg" width="256" height="256" viewBox="0 0 256 256"><path d="M127.5.5A127.5 127.5 0 1 0 255 128 127.5 127.5 0 0 0 127.5.5zm110.3 116.3h-7.4c-3.1 0-6.2-.2-9.2-.4l-9.1-1-9.1-1c-3.1-.3-6.2-.4-9.3-.4a128.5 128.5 0 0 0-16.3 1 64.9 64.9 0 0 0-15.8 3.7l-30.7 11a2.7 2.7 0 0 0-1.2 1.6 17.3 17.3 0 0 0-.8 2.7l-.6 2.9a9.8 9.8 0 0 1-.6 2 3.2 3.2 0 0 0 1.3 1.3l2.5 1.1 2.9 1.2a15.1 15.1 0 0 1 2.8 1.5 7.3 7.3 0 0 1 2 1.9 3.6 3.6 0 0 1 .9 2.4 1.7 1.7 0 0 1-.5 1.2 3.8 3.8 0 0 1-1.2.9l-1.6.7-1.7.8a4.3 4.3 0 0 0-1.2 1.1 2.5 2.5 0 0 0-.5 1.5 3.7 3.7 0 0 0 .8 2.5 7.8 7.8 0 0 0 2 1.6l2.3 1.4a6.2 6.2 0 0 1 2.2 1.7 16.8 16.8 0 0 1 2 3.4 20.5 20.5 0 0 1 1.3 3.7c.3 1.3.6 2.6.8 3.9s.1 2.6.2 4l1.4 1.3v7.2h1.8l1 .3.6.2a5.4 5.4 0 0 0 .1.8c0 .3-.1.6-.1 1a5.6 5.6 0 0 1-.4 1.2 4.4 4.4 0 0 1-.6 1 1.1 1.1 0 0 1-.9.3h-5.2c-.2 0-.5-.5-1-.8l-1.5-.9-1.6-.8c-.5-.3-.9-.8-1.1-.8h-6.2a4.4 4.4 0 0 1 2.3-4.6 6.5 6.5 0 0 1 2.1-.6l2.1-.4a4.3 4.3 0 0 0 1.7-.6 1.4 1.4 0 0 0 .6-1.3v-.7l-.9-1.7-1.3-2.5a16.5 16.5 0 0 0-1.5-2.5 9.7 9.7 0 0 0-1.6-1.8l-1.3-.8-1.8-.9-1.8-1.1a1.9 1.9 0 0 1-.9-1.1 16.3 16.3 0 0 1-1-2.9 17.3 17.3 0 0 0-1.1-3.2 6.9 6.9 0 0 0-1.7-2.6 4 4 0 0 0-2.9-1.1 24.7 24.7 0 0 0-6 .8 24.2 24.2 0 0 0-5.8 2.3 27.6 27.6 0 0 0-5 3.4 24.4 24.4 0 0 0-3.9 4.6l-.4.2h-.1l-.2-.2-.2-.3c0-.2-.1-.4-.1-.6a6.4 6.4 0 0 0-.2-.7v-.3h-.4a1.6 1.6 0 0 0-1.1.5 6.2 6.2 0 0 0-.9 1.2l-.8 1.3a2.9 2.9 0 0 1-.8 1 5.2 5.2 0 0 1-.7-1.6c0-.5-.1-1-.1-1.7a13.5 13.5 0 0 1 .4-2.9l.9-2.8a11.4 11.4 0 0 0 .9-2.6 14.1 14.1 0 0 0 .4-2.7h-4.8c0-1.7.2-1.8.6-2.4a6.1 6.1 0 0 1 1.6-1.6 8.5 8.5 0 0 1 2.2-.9 7.6 7.6 0 0 1 2.1-.3 15.1 15.1 0 0 1 3 .2l3 .5 2.8.4a15.1 15.1 0 0 0 3 .2h2.3a2.4 2.4 0 0 0-1.7-1.4l-2.6-.5-2.6-.2c-.9 0-1.7.2-2.2-.2l-4-2.1h-.2a17.4 17.4 0 0 0-3.2-.1 11.3 11.3 0 0 1-3.2.2 7.3 7.3 0 0 1-3-.7l-2.6-1.4-2.7-1.4a5.8 5.8 0 0 0-2.8-.6v6.1l1.6-.2 1-.3.8-.5c.4-.2.4-.4.9-.7h.6v2.7l2.1-.7c0 .1.2.3.2.5a4.3 4.3 0 0 0 .1.5 5.6 5.6 0 0 1-1.3 3.9 19 19 0 0 1-3.3 2.9 29.2 29.2 0 0 0-4.6-1.3l-4.8-.6v-7.9l-1.7.6-2.1 1-1.9 1.2c-.5.4-1 .8-1 1.2v6.9a9.6 9.6 0 0 0 3-.3l1.9-.6 1.2-.6a2.4 2.4 0 0 1 1.2-.3h.4l.3.7c.1.4.3.8.4 1.3a6.5 6.5 0 0 1 .4 1.3 5.1 5.1 0 0 1 .2.9 4.3 4.3 0 0 1-.4 1.9 5.4 5.4 0 0 1-1.1 1.8 5 5 0 0 1-1.5 1.4 3.2 3.2 0 0 1-1.9.5h-1l-3-.5a24.1 24.1 0 0 1-3.7-.7 13.3 13.3 0 0 1-3.2-1.2 2.5 2.5 0 0 1-1.5-2.1V150c0-.2.4-.4.9-.9a20.2 20.2 0 0 0 1.9-1.6 22.9 22.9 0 0 0 2.4-2.2 18.8 18.8 0 0 0 2.4-2.5 21.1 21.1 0 0 0 1.8-2.7 5.1 5.1 0 0 0 .7-2.6 4 4 0 0 0-1.1-2.7 14.6 14.6 0 0 0-2.8-2.1l-3.3-1.4-2.6-.9-1.3-9.1a13.1 13.1 0 0 0-.6-2.7 8.6 8.6 0 0 0-1.1-2.8 7.4 7.4 0 0 0-1.8-2.1 3.9 3.9 0 0 0-2.6-.9 10.7 10.7 0 0 0-3.7.5 13 13 0 0 0-3.2 1.5l-1.6 1-2.6 1.5-3 1.7-2.9 1.8a29.4 29.4 0 0 0-2.6 1.7c-.8.4-1.3 1.1-1.6 1.1h-1.1l-1.7-.3-2.1-.3a4.1 4.1 0 0 1-1.3-.8c-.5-.3-.4-.8-.4-1.4v-1.9c0-.6-.2-.9.1-.9h1.5v-.4c.1-.3.1-.6.2-.9s.1-.5.2-.8v-.5c-.3-.4-.5-.7-.8-.8l-.9-.5a2.3 2.3 0 0 1-.7-.7 2.3 2.3 0 0 1-.3-1.3 2.6 2.6 0 0 1 .3-1.1 4.5 4.5 0 0 1 .6-1.2c.3-.4.3-.7.7-.9l.8-.3v.8c0 .5.4 1 .5 1.4a1.3 1.3 0 0 0 1.2.8 1.6 1.6 0 0 0 1.1-.5 5.2 5.2 0 0 0 1-1.1 5.8 5.8 0 0 0 .6-1.7c.2-.4.3.3.3-1.4H20.7l-.8-.4-1.1-.7-.9-.8a1.3 1.3 0 0 1-.4-1 4.4 4.4 0 0 1 1.1-3.2 6.8 6.8 0 0 1 2.6-1.8 11.9 11.9 0 0 1 3.2-1l2.9-.9 2.2-.9 3.3-1.6a26.8 26.8 0 0 0 3.4-1.6 8.9 8.9 0 0 1 2.2-1H52a7.1 7.1 0 0 1 3.9 1 10.7 10.7 0 0 1 3.1 2.5 21 21 0 0 1 2.6 3.3c.8 1.2 1.5 2.3 2.3 3.3a14.7 14.7 0 0 0 2.3 2.6 3.7 3.7 0 0 0 2.5 1 .7.7 0 0 0 .7-.4 1 1 0 0 1 .9-.4 4 4 0 0 1 1.5.3l1.5.7 1.6.7a4 4 0 0 0 1.5.3 27.5 27.5 0 0 0 4.1-.2l4.2-.4 4.1-.5 4.1-.2a57.4 57.4 0 0 1 7.3.4 33.1 33.1 0 0 1 7.3 1.6c1.6.5 3.3 1.2 5 1.9l5.1 2.2a55.2 55.2 0 0 0 5.3 1.8 20 20 0 0 0 5.4.7h2.6q6.4-1.5 12.9-2.7c4.3-.9 8.6-1.7 12.9-2.3s8.6-1.2 13-1.6 8.7-.6 13.1-.6h3.3l5.6.2a34.4 34.4 0 0 1 5 .9l36.5 7.3H245c-.8 0-1.9 1-3.2 1.3a13.3 13.3 0 0 1-4 .1z"/></svg>